<?xml version="1.0" encoding="UTF-8"?><svg id="Layer_1" xmlns="http://www.w3.org/2000/svg" viewBox="0 0 1260 399.6"><metadata><?xpacket begin="﻿" id="W5M0MpCehiHzreSzNTczkc9d"?>
<x:xmpmeta xmlns:x="adobe:ns:meta/" x:xmptk="Adobe XMP Core 7.1-c000 79.4d2f597, 2021/09/01-20:51:22        ">
   <rdf:RDF xmlns:rdf="http://www.w3.org/1999/02/22-rdf-syntax-ns#">
      <rdf:Description rdf:about=""
            xmlns:xmp="http://ns.adobe.com/xap/1.0/"
            xmlns:xmpMM="http://ns.adobe.com/xap/1.0/mm/"
            xmlns:stEvt="http://ns.adobe.com/xap/1.0/sType/ResourceEvent#">
         <xmp:MetadataDate>2022-12-30T13:14:18-05:00</xmp:MetadataDate>
         <xmpMM:InstanceID>xmp.iid:b1ec6aec-18cc-409a-b19e-5da61882da58</xmpMM:InstanceID>
         <xmpMM:DocumentID>xmp.did:46f12779-2c0b-4722-ab18-160030a56fe3</xmpMM:DocumentID>
         <xmpMM:OriginalDocumentID>xmp.did:46f12779-2c0b-4722-ab18-160030a56fe3</xmpMM:OriginalDocumentID>
         <xmpMM:History>
            <rdf:Seq>
               <rdf:li>
                  <rdf:Description>
                     <stEvt:action>saved</stEvt:action>
                     <stEvt:instanceID>xmp.iid:46f12779-2c0b-4722-ab18-160030a56fe3</stEvt:instanceID>
                     <stEvt:when>2022-12-30T13:14:13-05:00</stEvt:when>
                     <stEvt:softwareAgent>Adobe Bridge 2023</stEvt:softwareAgent>
                     <stEvt:changed>/metadata</stEvt:changed>
                  </rdf:Description>
               </rdf:li>
               <rdf:li>
                  <rdf:Description>
                     <stEvt:action>saved</stEvt:action>
                     <stEvt:instanceID>xmp.iid:b1ec6aec-18cc-409a-b19e-5da61882da58</stEvt:instanceID>
                     <stEvt:when>2022-12-30T13:14:18-05:00</stEvt:when>
                     <stEvt:softwareAgent>Adobe Bridge 2023</stEvt:softwareAgent>
                     <stEvt:changed>/metadata</stEvt:changed>
                  </rdf:Description>
               </rdf:li>
            </rdf:Seq>
         </xmpMM:History>
      </rdf:Description>
   </rdf:RDF>
</x:xmpmeta>
                                                                                                    
                                                                                                    
                                                                                                    
                                                                                                    
                                                                                                    
                                                                                                    
                                                                                                    
                                                                                                    
                                                                                                    
                                                                                                    
                                                                                                    
                                                                                                    
                                                                                                    
                                                                                                    
                                                                                                    
                                                                                                    
                                                                                                    
                              
<?xpacket end="w"?></metadata>
<defs><style>.cls-1{fill:#eeb111;}</style></defs><path d="m1238.44,84.16c-12.67,0-21.68-9.48-21.68-22.03,0-13.26,10.01-22.04,21.68-22.04s21.56,8.78,21.56,22.04-10.01,22.03-21.56,22.03Zm0-40.24c-9.54,0-16.96,7.48-16.96,18.21,0,10.01,6.48,18.2,16.96,18.2,9.43,0,16.85-7.42,16.85-18.2s-7.42-18.21-16.85-18.21Zm-4.36,30.81h-4.01v-24.39h9.25c5.89,0,8.9,2.06,8.9,7.01,0,4.42-2.71,6.25-6.37,6.66l6.84,10.72h-4.54l-6.31-10.42h-3.77v10.42Zm4.47-13.84c3,0,5.66-.29,5.66-3.83,0-2.94-2.89-3.3-5.3-3.3h-4.83v7.13h4.47Z"/><g><path d="m282.92,43.27l-61.69,225.43h-35.85l-43.6-163.75-44.25,163.75h-35.85L0,43.27h35.53l43.92,163.75L123.69,43.27h35.2l44.57,163.75,43.93-163.75h35.52Z"/><path d="m299.36,43.92l35.53-2.91v55.22l-.65,20.67h1.3c16.47-6.14,29.71-9.04,45.86-9.04,28.75,0,48.12,12.92,48.12,62.33v98.51h-35.53v-95.6c0-29.71-14.53-33.58-31-33.58-10.34,0-19.06,2.26-28.1,4.85v124.34h-35.53V43.92Z"/><path d="m478.27,46.18c18.41,0,21.32,10.66,21.32,22.61s-3.88,22.93-21.32,22.93-20.99-10.98-20.99-22.93,3.23-22.61,20.99-22.61Zm-17.76,63.95h35.53v158.58h-35.53V110.13Z"/><path d="m526.06,110.13h24.22l4.85,12.92h2.26c9.36-8.07,24.22-15.18,43.6-15.18,2.26,0,4.84,0,7.42.32v34.88c-6.45-.96-13.24-1.93-20.02-1.93-9.69,0-17.44,2.26-26.81,6.46v121.11h-35.53V110.13Z"/><path d="m623.59,268.7V43.92l35.53-2.91v227.69h-35.53Z"/></g><path d="m911.65,107.86c50.38,0,69.77,29.71,69.77,82.35,0,49.41-18.09,81.72-70.41,81.72s-70.73-32.3-70.73-81.72c0-52.64,20.99-82.35,71.38-82.35Zm33.59,82.35c0-30.03-4.85-54.57-33.27-54.57s-35.85,23.57-35.85,54.57c0,28.74,5.81,53.62,34.24,53.62s34.88-23.58,34.88-53.62Z"/><path d="m1070.95,107.86c50.38,0,69.77,29.71,69.77,82.35,0,49.41-18.09,81.72-70.41,81.72s-70.73-32.3-70.73-81.72c0-52.64,20.99-82.35,71.38-82.35Zm33.59,82.35c0-30.03-4.85-54.57-33.27-54.57s-35.85,23.57-35.85,54.57c0,28.74,5.81,53.62,34.24,53.62s34.88-23.58,34.88-53.62Z"/><path d="m1163.72,268.7V43.92l35.53-2.91v227.69h-35.53Z"/><path d="m688.18,110.12h26.81l2.91,11.63c10.66-5.81,30.35-13.88,48.12-13.88,32.29,0,55.86,23.58,55.86,80.09s-24.87,83.01-66.2,83.01c-15.21,0-31.97-3.23-31.97-3.23v72.66l-35.53,3.88V110.12Zm35.53,129.19c10.01.31,15.5.64,25.83.64,21.96,0,36.5-11.63,36.5-57.82,0-31.65-12.92-40.04-36.17-40.04-9.04,0-17.44,1.6-26.16,4.52v92.69Z"/><path class="cls-1" d="m864.06,12.69c-26.57-30.78-110.87-3.72-204.94,61.38v16.41c82.85-58.89,155.88-86.06,176.8-61.83,26.12,30.26-38.85,129.24-145.13,220.96-106.28,91.72-213.65,141.45-239.77,111.19-13.56-15.72-2.5-49.97,26.11-92.1h-16.63c-35.43,52.84-48.71,97.24-30.52,118.32,33.17,38.43,157.22-14.15,277.06-117.56,119.83-103.41,190.18-218.34,157.02-256.77Z"/></svg>